<svg xmlns="http://www.w3.org/2000/svg" viewBox="0 0 1442.63 288.48"><defs><style>.cls-1{fill:#fff;}</style></defs><g id="Layer_2" data-name="Layer 2"><g id="Styles"><path class="cls-1" d="M1221,161c0,33.82,23.19,58.33,56,58.33s56-24.51,56-58.33c0-33.52-23.17-58.35-56-58.35s-56,24.52-56,58.35m19.27,0c0-23.59,14.16-41,36.43-41s36.44,17.69,36.44,41-14.15,41-36.44,41-36.43-17.69-36.43-41M637,161c0,36,27.1,58.33,60.21,58.64,21.38,0,37.94-9,50-23V150.39H693.87v29.79h20.47v4c-3.61,2.49-10.83,5-17.16,5-15.95,0-26.5-12.41-26.5-28.23s10.55-28.25,26.5-28.25c9.94,0,17.16,7.15,20.17,14l28-14.59c-6.92-14.59-22-29.48-48.17-29.48-33.11,0-60.21,22-60.21,58.35m780.08-56.49-28,41.27-28.3-41.27h-22.88l38.54,54.93-40.94,58h22.87L1389,173.36l30.72,44.07h22.87l-40.94-58,38.53-54.93Zm-234.24,0v78.21l-56-78.21h-19.57v113h19.27V136.74l57.2,80.69h18.37v-113Zm-115.61,0-42.76,53.69V104.46h-19.26v113h19.26v-36l9.64-11.79,36.73,47.8h23.48l-47.86-59.9L1091,104.46Zm-187.87,0v29.79h29.51v83.18H942V134.25h29.2V104.46Zm-44.86,0v40H795.33v-40H762.21v113h33.12V174.29h39.14v43.14h33.12v-113Zm-242.66,113h33.11v-113H591.81Zm-50.58-113v53.38L503,104.46H468.67v113h33.11V160.32l40.35,57.11h32.22v-113Zm-121,0-28.61,42.21V104.46H358.48v113h33.11V186.08l6-8.38,24.69,39.73h40.34l-43.36-60.52,41.55-52.45Z"/><path class="cls-1" d="M137.17,0c-15.73,0-24.68,3.49-24.68,3.49-46.14,20-19.83,78-19.83,78,43.67,97.68,126.05,106.13,126.05,106.13,100.67,9,39.08-116,39.08-116l-1.16-2c9.83,19.51,10.9,38.55,1.16,49.92-15.63,17.88-52.63,10-82.75-17.69s-41.95-64.87-26.51-82.75c11.44-13.16,34.32-12.38,57.77,0h.2C177.82,3.84,154,0,137.55,0ZM101.86,4.13l1.29-.44s-.47.13-1.29.44M36.61,45C20.78,67.36,26.69,93.9,26.69,93.9c12.58,73.71,84.09,124,84.09,124,87.9,62.7,130.42,22.41,130.42,22.41,28.79-31.25,34.52-69,34.52-69-10.68,40.29-60.25,32.82-60.25,32.82-77.23-10.42-125.1-89.23-125.1-89.23C40.92,31,92.84,7.47,101.86,4.13,57.56,19.51,36.61,45,36.61,45M163.79,24.52c-12.4,14.15-2.87,43.63,21,65.65s53.2,28.3,65.59,14.15,3.06-43.63-21-65.65C214.16,24.61,196.67,17,182.8,17c-7.85,0-14.54,2.44-19,7.56M253,63.64l3.61,6.09c-.36-.72-.74-1.44-1.13-2.17l-2.66-4.51ZM0,138.51v1.77a115,115,0,0,0,13.53,45.4c29.17,52.87,78.75,81.57,78.75,81.57,74.55,47.77,133.48-10.61,133.48-10.61-64.45,32.44-144-41.07-144-41.07-91.53-88.85-61-150.76-61-150.76C3.61,89.38.18,119.45,0,138.51M36.22,243.08c40.43,45,93.05,45.4,93.05,45.4C37.56,268.63,3.43,178.22,3.43,178.22c9.15,45.2,32.79,64.86,32.79,64.86"/></g></g></svg>