<svg xmlns="http://www.w3.org/2000/svg" xmlns:xlink="http://www.w3.org/1999/xlink" viewBox="0 0 1442.63 288.48"><defs><style>.cls-1{fill:none;}.cls-2{clip-path:url(#clip-path);}.cls-3{fill:#3a3a3a;}</style><clipPath id="clip-path" transform="translate(0 -0.01)"><rect class="cls-1" width="1442.64" height="288.49"/></clipPath></defs><g id="Layer_2" data-name="Layer 2"><g id="Styles"><g class="cls-2"><path class="cls-3" d="M1221.05,161c0,33.83,23.19,58.34,56,58.34s56-24.51,56-58.34c0-33.52-23.18-58.34-56-58.34s-56,24.51-56,58.34m19.27,0c0-23.58,14.15-41,36.43-41s36.43,17.69,36.43,41-14.15,41-36.43,41-36.43-17.69-36.43-41M637,161c0,36,27.09,58.34,60.21,58.65,21.37,0,37.93-9,50-23V150.4H693.88v29.79h20.47v4c-3.61,2.48-10.84,5-17.16,5-16,0-26.5-12.41-26.5-28.24s10.54-28.24,26.5-28.24c9.93,0,17.16,7.14,20.16,14l28-14.59c-6.92-14.59-22-29.48-48.17-29.48-33.12,0-60.21,22-60.21,58.34m780.07-56.48-28,41.27-28.31-41.27h-22.88l38.54,54.93-40.94,58h22.87l30.72-44.07,30.71,44.07h22.87l-40.94-58,38.53-54.93Zm-234.24,0v78.2l-56-78.2h-19.58v113h19.27V136.75l57.21,80.68h18.36v-113Zm-115.61,0-42.75,53.69V104.47h-19.26v113h19.26v-36l9.64-11.8,36.72,47.8h23.49l-47.87-59.89L1091,104.47Zm-187.86,0v29.79h29.5v83.17H942V134.26h29.2V104.47Zm-44.87,0v40H795.33v-40H762.22v113h33.11V174.29h39.14v43.14h33.12v-113Zm-242.66,113h33.12v-113H591.81Zm-50.58-113v53.38L503,104.47H468.67v113h33.12v-57.1l40.34,57.1h32.22v-113Zm-121,0-28.6,42.21V104.47H358.48v113H391.6V186.09l6-8.38,24.69,39.72h40.34L419.3,156.91l41.55-52.44Z" transform="translate(0 -0.01)"/><path class="cls-3" d="M137.17,0C121.44,0,112.5,3.5,112.5,3.5c-46.15,20-19.83,78-19.83,78,43.66,97.68,126,106.13,126,106.13,100.67,9,39.08-116,39.08-116l-1.15-2c9.83,19.5,10.89,38.55,1.15,49.91-15.63,17.89-52.62,10-82.75-17.69S133.09,37.1,148.53,19.22c11.45-13.17,34.33-12.38,57.78,0h.19C177.83,3.84,154,0,137.55,0Zm-35.3,4.13,1.28-.45s-.47.14-1.28.45M36.61,45C20.78,67.37,26.7,93.91,26.7,93.91c12.57,73.7,84.08,124,84.08,124,87.91,62.71,130.42,22.41,130.42,22.41,28.79-31.25,34.52-69,34.52-69-10.68,40.28-60.25,32.82-60.25,32.82-77.23-10.42-125.1-89.24-125.1-89.24C40.93,31,92.84,7.48,101.87,4.14,57.56,19.52,36.61,45,36.61,45M163.79,24.52c-12.39,14.16-2.86,43.64,21,65.65s53.2,28.31,65.6,14.15,3-43.63-21-65.64C214.16,24.62,196.67,17,182.8,17c-7.84,0-14.53,2.44-19,7.55M253,63.64l3.61,6.1c-.36-.72-.74-1.45-1.14-2.17l-2.66-4.52ZM0,138.52v1.77a115.09,115.09,0,0,0,13.54,45.4c29.17,52.87,78.75,81.57,78.75,81.57,74.55,47.77,133.47-10.61,133.47-10.61-64.45,32.43-144-41.08-144-41.08-91.53-88.84-61-150.75-61-150.75C3.61,89.39.19,119.46,0,138.52M36.23,243.09c40.42,45,93,45.4,93,45.4C37.56,268.64,3.43,178.23,3.43,178.23c9.15,45.2,32.8,64.86,32.8,64.86" transform="translate(0 -0.01)"/></g></g></g></svg>